<?xml version="1.0" encoding="UTF-8"?>
<svg id="Capa_1" data-name="Capa 1" xmlns="http://www.w3.org/2000/svg" viewBox="0 0 1080 1080">
  <defs>
    <style>
      .cls-1 {
        fill: #fff;
      }

      .cls-2 {
        fill: none;
        stroke: #000;
        stroke-linecap: round;
        stroke-linejoin: round;
        stroke-width: 2px;
      }
    </style>
  </defs>
  <path class="cls-1" d="M1039.42,81.99v998.83H40.58V81.99h998.83ZM706.51,714.65c81.54-81.77,188.07-243.38,90.37-350.86-65.93-72.54-184.27-63.3-237.43,18.57l-40.22-4.26c-61.84-86.13-191.8-84.57-249.88,5.18-44.88,69.35-19.91,155.48,18.7,221.38,13.56,23.13,29.63,44.6,46.21,65.61-2.48,7.93-15.88,13.29-10.4,22.4,4.81,7.98,21.38,1.77,29.01,4.29.37,1.24,2.38,2.21,2.73,2.97,2.27,4.92,3.8,11.91,6.37,17.46,6.49,14.05,19.24,31.97,31.14,41.85.92.77,5.2,4.3,5.97,3.72.91-1.94,1.42-10.84,4.16-10.16,25.55,35.92,62.6,59.62,100.73,80.38,1.44-.72-1-9.5,1.83-8.3,16.21,12.93,35.48,22.92,47.1,40.7l1.77.81c17.33-17.31,38.7-34.34,53.08-54.16,5.29-7.29,9.85-17.64,15.85-23.88,11.51-11.97,29.64-24.28,42.55-35.99,13.26-12.02,28.1-25.4,40.37-37.7Z"/>
  <path d="M706.51,714.65c-12.27,12.31-27.12,25.68-40.37,37.7-12.91,11.71-31.04,24.02-42.55,35.99-6,6.24-10.56,16.59-15.85,23.88-14.38,19.82-35.74,36.85-53.08,54.16l-1.77-.81c-11.62-17.78-30.88-27.77-47.1-40.7-2.83-1.2-.39,7.58-1.83,8.3-38.13-20.76-75.18-44.46-100.73-80.38-2.74-.68-3.24,8.22-4.16,10.16-.77.58-5.05-2.95-5.97-3.72-11.91-9.88-24.65-27.8-31.14-41.85-2.56-5.55-4.09-12.54-6.37-17.46-.35-.76-2.36-1.73-2.73-2.97-7.63-2.52-24.2,3.7-29.01-4.29-5.48-9.11,7.92-14.48,10.4-22.4-16.58-21.01-32.65-42.48-46.21-65.61-38.61-65.89-63.59-152.03-18.7-221.38,58.08-89.75,188.04-91.3,249.88-5.18l40.22,4.26c53.16-81.88,171.5-91.11,237.43-18.57,97.7,107.48-8.83,269.09-90.37,350.86ZM585.74,389.69c-1.68,2.18,9.93,5.84,11.42,6.59,23.53,11.78,45.56,30.47,57.61,54.19,8.3,16.32,11.18,29.82,23.82,44.56,6.72,7.84,20.37,22.15,31.49,18.53,1.23-1.74-3.89-23.64-4.2-28.26-1.49-21.71,5.03-43.72-14.31-59.61-10.68-8.77-26.66-11.77-38.98-18.3-12.01-6.36-30.71-24.61-43.26-25.17-8.42-.37-15.79,5.29-23.57,7.47ZM587.59,738.95v-21.71c0-35.56-59.91-52.79-82.25-72.98-.77-.7-4.68-4.19-3.68-5.09,14.78,1.96,29.53,4.62,44.01,8.19,39.96,9.85,96.8,39.1,124.69-8.18v-2.8c-12.09-8.62-24.4.66-36.38,4.37-36.95,11.45-64.2,11.44-94.87-14.54-5.12-4.34-11.51-14.27-18.48-13.88-2.39.14-6.2,2.64-7.91,1.47l-.72-2.55c1.81-10.38,11.3-15.38,21.39-13.51l1.54,1.26c.3,1.56-3.17,2.3-.99,5.56,3.4,5.08,18.33,16.16,23.96,19.48,28.52,16.83,65.81,11.01,93.93-4.24,6.8-3.69,5.8-15.69,7.72-22.53-.58-2.14-5.08-2.34-7.01-3.2-9.48-4.23-20.46-11.23-25.99-20.21-20.55-33.38,28.44-37.58,50.08-35.3,27.08,2.86,19.77,33.15,6.59,47.95-3.04,3.41-11.54,8.76-12.42,11.6-.55,1.77-2.99,19.1-2.7,20.07l14.74,8.55c1.84-.84,3.23-2.26,4.51-3.76,11.51-13.51,17.61-53.05,13.63-69.95-4.87-20.71-32.49-27.97-48.27-38.58.02-25.48.03-46.65-15.03-68.13-37.29-53.2-103.32-62.57-163.08-47.58-9.9-3.95-21.28-13.24-32.42-12.69s-35.78,20.72-47.38,26.61c-18.1,9.2-35.94,12.47-52.52,26.02-16.39,13.4-17.9,21.8-9.88,41.26,9.96,24.17,29.61,42.37,46.83,61.27,4.66,5.11,15.96,21.02,21.68,22.73,12.73,3.8,23.73-24.73,26.35-33.8,5.56-19.23,4.77-36.52,6.94-55.89,2.34-20.87,8.76-44.83,29.56-54.05-5.38,9.35-9.96,19.77-12.66,30.29-9.43,36.76.61,78.06-21.14,111.92-9.25,14.4-23.78,24.5-39.63,12.07-3.11-2.43-6.28-7.25-9.26-9.22-.93-.62-.7-1.48-1.86,0-9.45,32.59-5.97,68.19-22.15,98.9l-13.41,19.38c9,.82,18.01-3.12,24.48-9.22.88.64,1.22,1.2,1.4,2.28.71,4.23.3,9.75,1.17,14.54,1.63,9.02,12.22,34.37,19.13,40,.65.53,1.63.98,1.86-.03l6.93-17.99c15.31,33.84,41.65,61.55,72.61,81.67,2.41,1.57,17.04,10.98,18.39,9.78-1.09-4.01-1.23-8.32-.92-12.48.1-1.37-.72-2.67,1.37-2.29l64.82,53.52,1.75-.8c23.23-23.8,50.73-46.45,60.5-79.52l14.77,9.24c.31-6.6-.32-13.23-2.1-19.6-2.19-7.8-7.34-14.38-8.97-21.97,4.13.93,7.28,3.84,11.62,4.53.75.12,7.81,1.02,6.84-1.29-14.06-13.2-20.36-32.71-20.32-51.76l-.87-1.9-15.36-.46c-.71,19.85-3.46,39.64-12.94,57.32-.66,1.23.3,2.36-2.24,1.87Z"/>
  <path class="cls-1" d="M587.59,738.95c2.54.49,1.58-.64,2.24-1.87,9.48-17.67,12.24-37.46,12.94-57.32l15.36.46.87,1.9c-.05,19.05,6.25,38.56,20.32,51.76.96,2.31-6.09,1.41-6.84,1.29-4.35-.69-7.5-3.6-11.62-4.53,1.63,7.59,6.78,14.17,8.97,21.97,1.79,6.37,2.42,13,2.1,19.6l-14.77-9.24c-9.77,33.07-37.27,55.72-60.5,79.52l-1.75.8-64.82-53.52c-2.09-.39-1.27.91-1.37,2.29-.3,4.16-.17,8.48.92,12.48-1.36,1.2-15.98-8.21-18.39-9.78-30.97-20.12-57.3-47.83-72.61-81.67l-6.93,17.99c-.23,1.01-1.21.56-1.86.03-6.91-5.63-17.5-30.98-19.13-40-.87-4.79-.46-10.31-1.17-14.54-.18-1.08-.51-1.64-1.4-2.28-6.47,6.09-15.48,10.04-24.48,9.22l13.41-19.38c16.18-30.7,12.7-66.31,22.15-98.9,1.15-1.48.92-.61,1.86,0,2.98,1.97,6.16,6.79,9.26,9.22,15.85,12.43,30.38,2.33,39.63-12.07,21.75-33.85,11.71-75.15,21.14-111.92,2.7-10.52,7.28-20.95,12.66-30.29-20.8,9.22-27.22,33.18-29.56,54.05-2.17,19.37-1.38,36.66-6.94,55.89-2.62,9.07-13.62,37.61-26.35,33.8-5.72-1.71-17.02-17.61-21.68-22.73-17.22-18.9-36.87-37.11-46.83-61.27-8.02-19.46-6.51-27.86,9.88-41.26,16.58-13.55,34.42-16.82,52.52-26.02,11.6-5.89,36.43-26.07,47.38-26.61s22.52,8.73,32.42,12.69c59.76-15,125.79-5.62,163.08,47.58,15.06,21.48,15.05,42.65,15.03,68.13,15.78,10.61,43.4,17.87,48.27,38.58,3.98,16.9-2.12,56.44-13.63,69.95-1.28,1.51-2.67,2.93-4.51,3.76l-14.74-8.55c-.29-.97,2.15-18.3,2.7-20.07.88-2.84,9.39-8.19,12.42-11.6,13.18-14.8,20.48-45.09-6.59-47.95-21.64-2.28-70.63,1.92-50.08,35.3,5.53,8.98,16.51,15.98,25.99,20.21,1.92.86,6.43,1.06,7.01,3.2-1.92,6.83-.92,18.84-7.72,22.53-28.12,15.25-65.41,21.07-93.93,4.24-5.63-3.32-20.56-14.41-23.96-19.48-2.19-3.26,1.28-4,.99-5.56l-1.54-1.26c-10.09-1.87-19.58,3.13-21.39,13.51l.72,2.55c1.72,1.16,5.52-1.34,7.91-1.47,6.97-.39,13.36,9.54,18.48,13.88,30.68,25.98,57.93,25.99,94.87,14.54,11.98-3.71,24.28-12.98,36.36-4.37v2.8c-27.88,47.28-84.72,18.03-124.68,8.18-14.47-3.57-29.22-6.23-44.01-8.19-1,.9,2.91,4.39,3.68,5.09,22.33,20.2,82.25,37.42,82.25,72.98v21.71ZM622.48,467.47c-3.2.44-6.66,2.79-8.5,5.43-9.37,13.43,5.42,32.65,19.85,24.47,14.05-7.97,2.76-31.83-11.35-29.9ZM528.13,481.47c-17.8-17.06-43.26,10.32-25.24,27.08,18.35,17.06,43.3-9.77,25.24-27.08Z"/>
  <path class="cls-1" d="M585.74,389.69c7.78-2.17,15.15-7.84,23.57-7.47,12.55.55,31.25,18.81,43.26,25.17,12.33,6.53,28.3,9.53,38.98,18.3,19.34,15.89,12.82,37.9,14.31,59.61.32,4.62,5.43,26.51,4.2,28.26-11.12,3.61-24.76-10.69-31.49-18.53-12.64-14.74-15.52-28.24-23.82-44.56-12.05-23.71-34.08-42.41-57.61-54.19-1.49-.74-13.1-4.41-11.42-6.59Z"/>
  <path d="M528.13,481.47c18.06,17.3-6.88,44.14-25.24,27.08-18.02-16.76,7.43-44.13,25.24-27.08Z"/>
  <path d="M622.48,467.47c14.11-1.94,25.4,21.92,11.35,29.9-14.43,8.19-29.21-11.04-19.85-24.47,1.84-2.63,5.3-4.99,8.5-5.43Z"/>
  <path class="cls-2" d="M464.23,421.56c-2.16,2.31-4.31,4.62-6.47,6.93"/>
  <path class="cls-2" d="M503.04,641l5.54,2.77"/>
  <path class="cls-2" d="M591.05,730.63c-.54,2.93-1.08,5.85-1.62,8.78"/>
</svg>